<svg id="增加" xmlns="http://www.w3.org/2000/svg" width="22" height="22" viewBox="0 0 22 22">
  <defs>
    <style>
      .cls-1 {
        fill: #878787;
        fill-rule: evenodd;
      }
    </style>
  </defs>
  <path id="icon" class="cls-1" d="M1367,439a11,11,0,1,1,11-11A11,11,0,0,1,1367,439Zm0-20a9,9,0,1,0,9,9A9,9,0,0,0,1367,419Z" transform="translate(-1356 -417)"/>
  <path id="矩形_1" data-name="矩形 1" class="cls-1" d="M1372,429h-4v5h-2v-5h-4a1,1,0,0,1,0-2h4v-5h2v5h4A1,1,0,0,1,1372,429Z" transform="translate(-1356 -417)"/>
</svg>
