<svg xmlns="http://www.w3.org/2000/svg" width="48" height="48" viewBox="0 0 48 48">
  <g id="calling_icon" transform="translate(-7 -64)">
    <g id="椭圆_15" data-name="椭圆 15" transform="translate(7 64)" fill="#eaaa00" stroke="#000" stroke-width="1" opacity="0.2">
      <circle cx="24" cy="24" r="24" stroke="none"/>
      <circle cx="24" cy="24" r="23.5" fill="none"/>
    </g>
    <path id="路径_362" data-name="路径 362" d="M-2347-303h-16a2,2,0,0,1-2-2v-20a2,2,0,0,1,2-2h2v-2a2,2,0,0,1,2-2h11.336l6.664,6.546V-309a2,2,0,0,1-2,2h-2v2A2,2,0,0,1-2347-303Zm-13.43-6.029a.545.545,0,0,0-.57.515.545.545,0,0,0,.57.516H-2350a.546.546,0,0,0,.571-.516.545.545,0,0,0-.571-.515ZM-2359-329l0,2h7.335l6.665,6.546V-309h2v-14.615l-5.483-5.385Zm4.634,10.961c-.378.022-3.735.278-5.432,2.535a5.723,5.723,0,0,0-.74,4.894s.052.12.131.12c.046,0,.092-.04.137-.12a7.4,7.4,0,0,1,1.081-1.859,4.515,4.515,0,0,1,3.5-1.859,4.806,4.806,0,0,1,1.311.192v1.462s.041.489.411.489a.908.908,0,0,0,.48-.189l4.11-3.23c.015-.008.356-.185.371-.458.01-.188-.133-.378-.425-.564l-4.153-3.25a.826.826,0,0,0-.384-.122c-.2,0-.335.128-.392.381l0,1.578h-.005Z" transform="translate(2384 404.999)" fill="#eaaa00"/>
  </g>
</svg>
