<svg xmlns="http://www.w3.org/2000/svg" width="48" height="48" viewBox="0 0 48 48">
  <g id="mining_icon" transform="translate(-7 -64)">
    <g id="椭圆_15" data-name="椭圆 15" transform="translate(7 64)" fill="#eaaa00" stroke="#000" stroke-width="1" opacity="0.2">
      <circle cx="24" cy="24" r="24" stroke="none"/>
      <circle cx="24" cy="24" r="23.5" fill="none"/>
    </g>
    <path id="路径_361" data-name="路径 361" d="M-2279-303h-16a2,2,0,0,1-2-2v-20a2,2,0,0,1,2-2h2v-2a2,2,0,0,1,2-2h11.335l6.665,6.546V-309a2,2,0,0,1-2,2h-2v2A2,2,0,0,1-2279-303Zm-10.287-17a7.54,7.54,0,0,0-1.688.174v.218a11.458,11.458,0,0,1,4.285,1.954v2.129l-6.31,6.312,1.213,1.212,6.311-6.312h2.129a11.477,11.477,0,0,1,1.956,4.286h.218a9.894,9.894,0,0,0-1.229-6.857l.564-1.065-1.214-1.212-1.067.564A9.658,9.658,0,0,0-2289.287-320Zm-1.71-9,0,2h7.335l6.665,6.546V-309h2v-14.615l-5.483-5.385H-2291Z" transform="translate(2316 405)" fill="#eaaa00"/>
  </g>
</svg>
