<svg width="24" height="21" viewBox="0 0 24 21" fill="none" xmlns="http://www.w3.org/2000/svg">
    <path d="M18.1723 6.4184C17.7337 6.16914 17.1697 6.16914 16.6684 6.4184L13.1593 8.47478L10.7781 9.78338L7.33159 11.8398C6.89295 12.089 6.32898 12.089 5.82768 11.8398L3.13316 10.2196C2.69452 9.97033 2.3812 9.47181 2.3812 8.91098V5.79525C2.3812 5.29674 2.63185 4.79822 3.13316 4.48665L5.82768 2.92878C6.26632 2.67953 6.83029 2.67953 7.33159 2.92878L10.0261 4.54896C10.4648 4.79822 10.7781 5.29674 10.7781 5.85757V7.91395L13.1593 6.54303V4.42433C13.1593 3.92582 12.9086 3.4273 12.4073 3.11573L7.39426 0.186944C6.95561 -0.0623145 6.39164 -0.0623145 5.89034 0.186944L0.751958 3.17804C0.250653 3.4273 0 3.92582 0 4.42433V10.2819C0 10.7804 0.250653 11.2789 0.751958 11.5905L5.82768 14.5193C6.26632 14.7685 6.83029 14.7685 7.33159 14.5193L10.7781 12.5252L13.1593 11.1543L16.6057 9.16024C17.0444 8.91098 17.6084 8.91098 18.1097 9.16024L20.8042 10.7181C21.2428 10.9674 21.5561 11.4659 21.5561 12.0267V15.1424C21.5561 15.641 21.3055 16.1395 20.8042 16.451L18.1723 18.0089C17.7337 18.2582 17.1697 18.2582 16.6684 18.0089L13.9739 16.451C13.5352 16.2018 13.2219 15.7033 13.2219 15.1424V13.1484L10.8407 14.5193V16.5757C10.8407 17.0742 11.0914 17.5727 11.5927 17.8843L16.6684 20.8131C17.1071 21.0623 17.671 21.0623 18.1723 20.8131L23.248 17.8843C23.6867 17.635 24 17.1365 24 16.5757V10.6558C24 10.1573 23.7493 9.65875 23.248 9.34718L18.1723 6.4184Z" fill="#8247E5"/>
</svg>
