<svg id="问号_icon" xmlns="http://www.w3.org/2000/svg" width="22" height="22" viewBox="0 0 22 22">
  <defs>
    <style>
      .cls-1 {
        fill: #878787;
        fill-rule: evenodd;
      }
    </style>
  </defs>
  <path id="icon" class="cls-1" d="M1408,193a11,11,0,1,1-11,11A11,11,0,0,1,1408,193Zm0,2a9,9,0,1,1-9,9A9,9,0,0,1,1408,195Z" transform="translate(-1397 -193)"/>
  <path id="_" data-name="?" class="cls-1" d="M1408.6,198.112a3.934,3.934,0,0,0-2.94,1.088,3.891,3.891,0,0,0-1.09,2.924h1.81a2.943,2.943,0,0,1,.45-1.751,2.287,2.287,0,0,1,3.1-.2,2.062,2.062,0,0,1,.03,2.635l-0.29.323a8.79,8.79,0,0,0-1.93,2.108,3.476,3.476,0,0,0-.33,1.614v0.289h1.82v-0.289a2.38,2.38,0,0,1,.27-1.139,3.014,3.014,0,0,1,.7-0.866,16.779,16.779,0,0,0,1.45-1.326,3.429,3.429,0,0,0,.62-2.074,3.124,3.124,0,0,0-1-2.431A3.813,3.813,0,0,0,1408.6,198.112Zm-0.29,9.944a1.109,1.109,0,0,0-.86.34,1.075,1.075,0,0,0-.38.867,1.259,1.259,0,0,0,1.24,1.224,1.338,1.338,0,0,0,.9-0.34,1.187,1.187,0,0,0,.36-0.884,1.124,1.124,0,0,0-.36-0.867A1.2,1.2,0,0,0,1408.31,208.056Z" transform="translate(-1397 -193)"/>
</svg>
